# xmcd
# 
# Track frame offsets:
#     150
#     19500
#     39525
#     74550
#     93375
# 
# Disc length: 1506
# 
# Revision: 0
# Processed by: cddbd v1.5.2PL0 Copyright (c) Steve Scherf et al.
# Submitted via: BonkEnc v1.0.8
# 
DISCID=3a05e005
DTITLE=馬場俊英 - ファイティングポーズの詩
DYEAR=2009
DGENRE=JPop
TTITLE0=ファイティングポーズの詩
TTITLE1=ディスタンス
TTITLE2=君がくれた未来～ Live at IKEBUKURO Sunshine City 2009.03.15～
TTITLE3=ファイティングポーズの詩(オリジナルカラオケ)
TTITLE4=ディスタンス(オリジナルカラオケ)
EXTD=
EXTT0=
EXTT1=
EXTT2=
EXTT3=
EXTT4=
PLAYORDER=
